<?xml version="1.0" encoding="utf-8"?>
<!-- Generator: Adobe Illustrator 24.0.1, SVG Export Plug-In . SVG Version: 6.00 Build 0)  -->
<svg version="1.1" id="Слой_1" xmlns="http://www.w3.org/2000/svg" xmlns:xlink="http://www.w3.org/1999/xlink" x="0px" y="0px"
	 viewBox="0 0 27 18" style="enable-background:new 0 0 27 18;" xml:space="preserve">
<style type="text/css">
	.st0{clip-path:url(#SVGID_2_);}
	.st1{fill:#FFFFFF;}
</style>
<g>
	<defs>
		<rect id="SVGID_1_" x="0" y="0" width="27" height="18"/>
	</defs>
	<clipPath id="SVGID_2_">
		<use xlink:href="#SVGID_1_"  style="overflow:visible;"/>
	</clipPath>
	<g class="st0">
		<path class="st1" d="M19.8,7.4c-2.1,0-3.8-1.7-3.8-3.7c0-2.1,1.7-3.7,3.8-3.7c2.1,0,3.8,1.7,3.8,3.7C23.6,5.7,21.9,7.4,19.8,7.4z
			 M19.8,2.3c-0.8,0-1.4,0.6-1.4,1.3c0,0.7,0.6,1.3,1.4,1.3c0.8,0,1.4-0.6,1.4-1.3C21.2,3,20.6,2.3,19.8,2.3z"/>
		<path class="st1" d="M25.9,18C25.8,18,25.8,18,25.9,18H1.2c-0.4,0-0.8-0.2-1.1-0.6C0,16.9,0,16.5,0.3,16.1L8.6,4.3
			c0.2-0.3,0.6-0.5,1-0.5c0.4,0,0.7,0.2,1,0.5l5.9,8L19.8,9c0.2-0.2,0.6-0.4,0.9-0.3c0.3,0,0.6,0.2,0.9,0.5l5.2,6.9
			c0.2,0.2,0.3,0.5,0.3,0.8C27,17.4,26.5,18,25.9,18z M3.5,15.6h20l-3-4L17.1,15c-0.2,0.2-0.6,0.4-0.9,0.3c-0.3,0-0.7-0.2-0.9-0.5
			L9.6,7L3.5,15.6z"/>
	</g>
</g>
</svg>
